<svg width="575px" height="120px" viewBox="0 0 575 120" version="1.1" xmlns="http://www.w3.org/2000/svg" xmlns:xlink="http://www.w3.org/1999/xlink">
    <!-- Generator: Sketch 42 (36781) - http://www.bohemiancoding.com/sketch -->
    <desc>Created with Sketch.</desc>
    <defs></defs>
    <g id="Group" stroke="none" stroke-width="1" fill="none" fill-rule="evenodd">
        <path d="M28,119.924092 L574.690784,119.924092 L574.690784,0.269016137 L28,0.269016137 L28,119.924092 Z M35.1798533,112.740333 L567.508537,112.740333 L567.508537,7.45516918 L35.1798533,7.45516918 L35.1798533,112.740333 Z" id="Fill-1" fill="#FDF282"></path>
        <polygon id="Fill-2" fill="#FDF282" points="107.242366 38.0019469 111.818326 38.0019469 111.818326 79.4977303 130.54099 79.4977303 130.54099 83.5996564 107.242366 83.5996564"></polygon>
        <polygon id="Fill-3" fill="#FDF282" points="237.010316 42.1036335 227.171524 42.1036335 227.171524 38.0017074 251.221639 38.0017074 251.221639 42.1036335 241.58867 42.1036335 241.58867 83.599417 237.010316 83.599417"></polygon>
        <polygon id="Fill-4" fill="#FDF282" points="270.427508 38.0019469 292.632401 38.0019469 292.632401 42.103873 275.003467 42.103873 275.003467 57.1442686 289.55703 57.1442686 289.55703 61.2461947 275.003467 61.2461947 275.003467 79.4977303 292.632401 79.4977303 292.632401 83.5996564 270.427508 83.5996564"></polygon>
        <polygon id="Fill-5" fill="#FDF282" points="360.011973 42.1036335 350.173181 42.1036335 350.173181 38.0017074 374.223296 38.0017074 374.223296 42.1036335 364.590326 42.1036335 364.590326 83.599417 360.011973 83.599417"></polygon>
        <path d="M497.978838,76.7643103 C495.315112,81.0697762 491.34944,84.2138678 486.160799,84.2138678 C474.270962,84.2138678 472.495145,69.8583238 472.495145,60.8355232 C472.495145,51.7432795 474.270962,37.3877356 486.160799,37.3877356 C491.34944,37.3877356 494.905861,40.3953358 497.296752,44.7702447 L493.400485,47.0953878 C491.966907,44.224279 489.645421,41.6932015 486.160799,41.6932015 C477.822596,41.6932015 477.276928,54.8203227 477.276928,60.8355232 C477.276928,66.7812806 477.822596,79.9060073 486.160799,79.9060073 C489.712433,79.9060073 492.512576,76.9678501 494.221381,74.1661843 L497.978838,76.7643103 Z" id="Fill-6" fill="#FDF282"></path>
        <polygon id="Fill-8" fill="#FDF282" points="166.379227 38.0019469 157.263207 71.2268298 157.124397 71.2268298 148.008376 38.0019469 143.451563 38.0019469 143.118896 38.0713899 156.64574 84.4880479 157.739471 84.4880479 171.268708 38.0713899 170.936041 38.0019469"></polygon>
        <polygon id="Fill-10" fill="#FDF282" points="453.387641 38.0019469 444.269227 71.2268298 444.13281 71.2268298 435.014396 38.0019469 430.459976 38.0019469 430.124916 38.0713899 443.654153 84.4880479 444.747884 84.4880479 458.277121 38.0713899 457.942061 38.0019469"></polygon>
        <path d="M316.348653,63.2971577 L316.348653,59.1952317 L316.348653,42.1026757 L321.951332,42.1026757 C326.596697,42.1026757 329.466245,44.154836 329.466245,50.102988 C329.466245,56.2546799 327.005948,59.1952317 323.045063,59.1952317 L319.507788,59.1952317 L321.472675,63.2971577 L331.289928,83.6008537 L336.368477,83.6008537 L326.390874,62.9523373 C331.993553,61.0414576 334.248027,55.7087142 334.248027,50.102988 C334.248027,41.8991359 328.578336,38.0031442 324.069388,38.0031442 L311.7703,38.0031442 L311.7703,83.6008537 L316.348653,83.6008537 L316.348653,63.2971577 Z" id="Fill-12" fill="#FDF282"></path>
        <polygon id="Fill-14" fill="#FDF282" points="521.35309 60.9025716 522.923084 60.9025716 537.057822 83.6008537 542.356554 83.6008537 526.477112 58.7163144 539.910617 38.0031442 534.71719 38.0031442 522.583238 56.8030401 521.35309 56.8030401 521.35309 38.0031442 516.774737 38.0031442 516.774737 83.6008537 521.35309 83.6008537"></polygon>
        <path d="M200.381816,58.1701093 C193.206749,53.8622488 192.455258,52.7008745 192.455258,49.0084227 C192.455258,45.181874 194.16167,41.6953566 198.467189,41.6953566 C202.097801,41.6953566 203.756347,44.6023842 204.57485,47.710557 L209.196283,47.710557 C208.033146,41.9683394 204.890764,37.3874961 198.467189,37.3874961 C191.976601,37.3874961 187.876905,42.8567309 187.876905,49.0084227 C187.876905,55.7084748 191.361527,57.8971265 196.62436,60.9717751 C201.336737,63.7063925 205.23061,65.7561583 205.23061,71.7713587 C205.23061,77.2405934 202.430468,79.9081624 198.467189,79.9081624 C193.137344,79.9081624 191.933522,76.3426236 191.301695,71.5582405 L187.221145,71.5582405 L186.64915,71.6372618 C187.331236,78.8832795 190.267796,84.2136283 198.333165,84.2136283 C205.984495,84.2136283 209.808963,78.5408537 209.808963,71.3618844 C209.808963,64.3218011 205.984495,61.5201353 200.381816,58.1701093" id="Fill-16" fill="#FDF282"></path>
        <path d="M87.9465099,76.7504217 C88.3270421,75.9578136 88.628596,75.1316814 88.7913393,74.272025 L84.2464922,74.1953982 L84.2081996,74.1666632 C82.5017878,76.968329 79.701645,79.9064862 76.1476176,79.9064862 C67.8118079,79.9064862 67.2637458,66.7817595 67.2637458,60.8360021 C67.2637458,54.8208017 67.8118079,41.6936804 76.1476176,41.6936804 C78.0933579,41.6936804 79.6657458,42.4982613 80.9341865,43.6955544 C81.434383,44.1672879 81.889107,44.6964914 82.2959654,45.2687975 C82.3007519,45.2759813 82.3055385,45.283165 82.3103251,45.2903488 C82.7147901,45.8602603 83.0761761,46.4684852 83.3896963,47.0958667 L87.9680495,47.0168454 C87.8220591,46.2362103 87.5731575,45.4962832 87.2716037,44.7779073 L87.2859634,44.7707236 C87.2716037,44.7443831 87.2524574,44.7204373 87.2380977,44.6940968 C86.0175226,41.8397501 83.6888569,39.5337637 80.9341865,38.3244977 L80.9341865,38.4107028 C79.5173621,37.7641645 77.9354011,37.3882145 76.1476176,37.3882145 C64.2601738,37.3882145 62.4819635,51.7437585 62.4819635,60.8360021 C62.4819635,69.8588027 64.2601738,84.2143467 76.1476176,84.2143467 C78.0383123,84.2143467 79.7590838,83.7881104 81.3195053,83.0529724 L81.317112,83.0649453 C81.3554046,83.0481832 81.3889105,83.026632 81.4248098,83.0098699 C81.4631024,82.9907132 81.4966083,82.9739511 81.5349009,82.9547944 C84.1220414,81.7575013 86.5584049,79.5592712 87.8914644,76.8797293 C87.9153972,76.8390213 87.9441166,76.8031026 87.9680495,76.7647892 L87.9465099,76.7504217 Z" id="Fill-18" fill="#FDF282"></path>
        <path d="M497.957777,76.7504217 C498.338309,75.9578136 498.639863,75.1316814 498.802606,74.272025 L494.257759,74.1953982 L494.219467,74.1666632 C492.513055,76.968329 489.712912,79.9064862 486.158885,79.9064862 C477.823075,79.9064862 477.275013,66.7817595 477.275013,60.8360021 C477.275013,54.8208017 477.823075,41.6936804 486.158885,41.6936804 C488.107018,41.6936804 489.677013,42.4982613 490.945454,43.6955544 C491.44565,44.1672879 491.900374,44.6964914 492.307232,45.2687975 C492.314412,45.2759813 492.316806,45.283165 492.323985,45.2903488 C492.726057,45.8602603 493.087443,46.4684852 493.400963,47.0958667 L497.979317,47.0168454 C497.833326,46.2362103 497.584425,45.4962832 497.285264,44.7779073 L497.29723,44.7707236 C497.282871,44.7443831 497.263725,44.7204373 497.249365,44.6940968 C496.02879,41.8397501 493.700124,39.5337637 490.945454,38.3244977 L490.945454,38.4107028 C489.528629,37.7641645 487.946668,37.3882145 486.158885,37.3882145 C474.271441,37.3882145 472.493231,51.7437585 472.493231,60.8360021 C472.493231,69.8588027 474.271441,84.2143467 486.158885,84.2143467 C488.047186,84.2143467 489.770351,83.7881104 491.330772,83.0529724 L491.328379,83.0649453 C491.364278,83.0481832 491.400178,83.026632 491.433684,83.0098699 L491.546168,82.9547944 C494.133308,81.7575013 496.569672,79.5592712 497.902731,76.8797293 C497.926664,76.8390213 497.955384,76.8031026 497.979317,76.7647892 L497.957777,76.7504217 Z" id="Fill-20" fill="#FDF282"></path>
        <path d="M408.391979,62.9532952 C413.994658,61.0400208 416.249132,55.709672 416.249132,50.1015513 C416.249132,41.9000937 410.579441,38.0017074 406.0681,38.0017074 L393.771404,38.0017074 L393.771404,83.599417 L398.323431,83.599417 L398.323431,59.1961895 L398.349757,59.1937949 L398.349757,42.1036335 L403.952436,42.1036335 C408.597801,42.1036335 411.467349,44.1557939 411.467349,50.1015513 C411.467349,56.2556377 409.007053,59.1961895 405.046167,59.1961895 L401.48496,59.1961895 L403.447453,63.2981156 L403.471386,63.2981156 L413.291032,83.599417 L418.338469,83.599417 L408.391979,62.9532952 Z" id="Fill-22" fill="#FDF282"></path>
        <path d="M-23.58,67.828 C-24.18,68.812 -25.164,69.844 -26.412,69.844 C-29.34,69.844 -29.532,65.236 -29.532,63.148 C-29.532,61.036 -29.34,56.428 -26.412,56.428 C-25.188,56.428 -24.372,57.316 -23.868,58.324 L-22.5,57.508 C-23.34,55.972 -24.588,54.916 -26.412,54.916 C-30.588,54.916 -31.212,59.956 -31.212,63.148 C-31.212,66.316 -30.588,71.356 -26.412,71.356 C-24.588,71.356 -23.196,70.252 -22.26,68.74 L-23.58,67.828 Z M-15.348,71.788 L-8.244,53.212 L-9.348,53.212 L-16.452,71.788 L-15.348,71.788 Z M-0.948,71.788 L6.156,53.212 L5.052,53.212 L-2.052,71.788 L-0.948,71.788 Z M16.452,54.916 C21.54,54.916 20.916,61.348 20.916,63.148 C20.916,65.716 21.348,71.356 16.452,71.356 C11.556,71.356 11.988,65.908 11.988,63.148 C11.988,59.38 11.796,54.916 16.452,54.916 Z M16.452,56.428 C13.428,56.428 13.668,59.956 13.668,63.148 C13.668,69.436 14.82,69.844 16.452,69.844 C18.3,69.844 19.236,69.1 19.236,63.148 C19.236,56.956 18.156,56.428 16.452,56.428 Z M30.852,54.916 C35.94,54.916 35.316,61.348 35.316,63.148 C35.316,65.716 35.748,71.356 30.852,71.356 C25.956,71.356 26.388,65.908 26.388,63.148 C26.388,59.38 26.196,54.916 30.852,54.916 Z M30.852,56.428 C27.828,56.428 28.068,59.956 28.068,63.148 C28.068,69.436 29.22,69.844 30.852,69.844 C32.7,69.844 33.636,69.1 33.636,63.148 C33.636,56.956 32.556,56.428 30.852,56.428 Z M44.748,69.7 L40.716,69.7 L40.716,71.14 L49.788,71.14 L49.788,69.7 L46.356,69.7 L46.356,54.82 L41.316,56.74 L41.82,58.204 L44.748,57.076 L44.748,69.7 Z" id="C//001-Copy" fill="#000000" transform="translate(9.288000, 62.500000) rotate(-90.000000) translate(-9.288000, -62.500000) "></path>
    </g>
</svg>